<?xml version="1.0" encoding="UTF-8" standalone="no"?>
<svg width="180px" height="29px" viewBox="0 0 180 29" version="1.1" xmlns="http://www.w3.org/2000/svg" xmlns:xlink="http://www.w3.org/1999/xlink">
    <!-- Generator: Sketch 39.1 (31720) - http://www.bohemiancoding.com/sketch -->
    <title>Group 3</title>
    <desc>Created with Sketch.</desc>
    <defs>
        <polygon id="path-1" points="0 0.585416879 180 0.585416879 180 28.9722931 0 28.9722931"></polygon>
    </defs>
    <g id="Page-1" stroke="none" stroke-width="1" fill="none" fill-rule="evenodd">
        <g id="Footer-desktop" transform="translate(-375.000000, -170.000000)">
            <g id="Group-3" transform="translate(375.000000, 170.000000)">
                <path d="M42.6447597,21.5283192 C43.0932748,23.2626799 44.3797326,24.1297071 46.6226146,24.1297071 C48.0866415,24.1297071 48.9539749,23.5020921 48.9539749,22.6950709 C48.9539749,21.1688948 47.4893356,21.2292071 44.7379324,20.5115828 C40.0436779,19.3151342 37.7714052,17.6423104 37.7714052,14.2335953 C37.7714052,10.2866619 41.1507297,7.3567711 46.6810899,7.3567711 C50.7474232,7.3567711 53.5888356,9.18022247 54.904378,12.5601592 L49.6103684,14.0844984 C48.9836718,12.5880192 47.9660169,11.9916318 46.2638024,11.9916318 C45.0073477,11.9916318 44.1400143,12.6804776 44.1400143,13.4856618 C44.1400143,14.7118073 45.4867844,14.7718135 47.9366262,15.3706501 C49.9697928,15.878559 51.8544749,16.2082866 53.4679049,17.491989 C54.7840596,18.5393407 55.4707623,20.0642923 55.4707623,21.9174406 C55.4707623,23.6524135 54.7525258,25.2976834 53.4394326,26.5226043 C51.7338504,28.1081743 49.3418716,28.97214 46.5026023,28.97214 C41.2392081,28.97214 37.8026329,26.6404735 36.8149811,22.6341463 L42.6447597,21.5283192 Z" id="Fill-1" fill="#FEFEFE"></path>
                <polygon id="Fill-3" fill="#FEFEFE" points="57.1712011 7.83394224 63.5404225 7.83394224 63.5404225 15.5183998 68.3837739 15.5183998 68.3837739 7.83394224 74.7514644 7.83394224 74.7514644 28.5835085 68.3837739 28.5835085 68.3837739 20.3635881 63.5404225 20.3635881 63.5404225 28.5835085 57.1712011 28.5835085"></polygon>
                <mask id="mask-2" fill="white">
                    <use xlink:href="#path-1"></use>
                </mask>
                <g id="Clip-6"></g>
                <polygon id="Fill-5" fill="#FEFEFE" mask="url(#mask-2)" points="77.4685172 7.83391162 83.95622 7.83391162 83.95622 28.5834779 77.4685172 28.5834779"></polygon>
                <path d="M94.7479845,16.5952036 C96.4829574,16.5952036 97.4703031,15.8187978 97.4703031,14.5638739 C97.4703031,13.2468007 96.6620574,12.5304011 95.1358812,12.5304011 L93.0442392,12.5304011 L93.0442392,16.5952036 L94.7479845,16.5952036 Z M86.6744056,7.83400347 L95.5246964,7.83400347 C98.0372997,7.83400347 99.9207572,8.10433718 101.236606,8.91105215 C103.178845,10.1381161 104.19405,12.0518828 104.19405,14.4129401 C104.19405,18.2998673 101.266303,21.0200429 96.7205327,21.0200429 L93.0442392,21.0200429 L93.0442392,28.5835698 L86.6744056,28.5835698 L86.6744056,7.83400347 Z" id="Fill-7" fill="#FEFEFE" mask="url(#mask-2)"></path>
                <path d="M110.140872,21.5283192 C110.589081,23.2626799 111.874926,24.1297071 114.117502,24.1297071 C115.582753,24.1297071 116.449474,23.5020921 116.449474,22.6950709 C116.449474,21.1688948 114.985141,21.2292071 112.235575,20.5115828 C107.53979,19.3151342 105.268129,17.6423104 105.268129,14.2335953 C105.268129,10.2866619 108.645923,7.3567711 114.17812,7.3567711 C118.24231,7.3567711 121.084335,9.18022247 122.400184,12.5601592 L117.10648,14.0844984 C116.48009,12.5880192 115.463966,11.9916318 113.758384,11.9916318 C112.503153,11.9916318 111.637351,12.6804776 111.637351,13.4856618 C111.637351,14.7118073 112.981672,14.7718135 115.43335,15.3706501 C117.467435,15.878559 119.349974,16.2082866 120.964017,17.491989 C122.278641,18.5393407 122.96718,20.0642923 122.96718,21.9174406 C122.96718,23.6524135 122.251699,25.2976834 120.934932,26.5226043 C119.229044,28.1081743 116.836759,28.97214 113.997183,28.97214 C108.735014,28.97214 105.298745,26.6404735 104.310787,22.6341463 L110.140872,21.5283192 Z" id="Fill-8" fill="#FEFEFE" mask="url(#mask-2)"></path>
                <polygon id="Fill-9" fill="#FEFEFE" mask="url(#mask-2)" points="124.66765 7.83394224 140.304756 7.83394224 140.304756 12.6806613 130.737759 12.6806613 130.737759 15.7290336 138.600398 15.7290336 138.600398 20.2135728 130.737759 20.2135728 130.737759 23.7410756 140.423543 23.7410756 140.423543 28.5835085 124.66765 28.5835085"></polygon>
                <path d="M148.852291,12.2601592 L148.852291,16.327411 L151.87311,16.327411 C153.425921,16.327411 154.382345,15.4303807 154.382345,14.293632 C154.382345,12.9174712 153.51593,12.2601592 151.7831,12.2601592 L148.852291,12.2601592 Z M142.543688,7.83378916 L152.679824,7.83378916 C158.08956,7.83378916 160.810348,9.83878967 160.810348,13.9054291 C160.810348,16.7143892 159.525115,18.6881621 157.193142,19.5257986 L160.930054,28.5836616 L154.115685,28.5836616 L151.033942,20.7216349 L148.852291,20.7216349 L148.852291,28.5836616 L142.543688,28.5836616 L142.543688,7.83378916 Z" id="Fill-10" fill="#FEFEFE" mask="url(#mask-2)"></path>
                <polygon id="Fill-11" fill="#FEFEFE" mask="url(#mask-2)" points="160.477743 7.83394224 167.115155 7.83394224 170.791448 21.769752 174.678681 7.83394224 180.000245 7.83394224 173.362833 28.5835085 167.025145 28.5835085"></polygon>
                <path d="M25.6309419,19.8896316 C25.5317481,20.2594653 24.5771609,23.0243392 24.5771609,23.0243392 C24.5771609,23.0243392 24.4201041,23.5353097 23.8733136,23.3151852 C23.33234,23.099653 19.9833248,21.8086029 19.9833248,21.8086029 C19.9833248,21.8086029 19.4604143,21.5829676 19.9833248,21.4118277 C20.5037861,21.2443617 25.3097867,19.6569548 25.3097867,19.6569548 C25.3097867,19.6569548 25.728605,19.5213287 25.6309419,19.8896316 M23.4260231,25.5246964 C23.4260231,25.5246964 23.2821308,25.8032963 23.2380447,25.8700378 C23.1942647,25.9337177 23.0577202,25.9471885 23.0577202,25.9471885 C21.8533116,26.2533422 16.0226146,26.4685682 15.4785794,26.4590775 C10.0979284,26.3748852 7.83637106,25.9624962 7.83637106,25.9624962 C7.75217879,25.9471885 7.72523727,25.8700378 7.72523727,25.8700378 C7.72523727,25.8700378 7.62175732,25.7019594 7.54399429,25.5289825 C7.46561894,25.3618226 7.78922339,25.2460965 7.78922339,25.2460965 C7.78922339,25.2460965 15.2651903,22.8109501 15.3708133,22.7564547 C15.4837841,22.7028778 15.5845086,22.7564547 15.5845086,22.7564547 L23.1942647,25.2332381 C23.5319522,25.346515 23.4260231,25.5246964 23.4260231,25.5246964 M6.39040718,23.0142361 C6.39040718,23.0142361 5.43581998,20.249056 5.33540157,19.8776916 C5.23773854,19.5106133 5.65471987,19.6428717 5.65471987,19.6428717 C5.65471987,19.6428717 10.4570466,21.2311971 10.9833248,21.3995816 C11.5111338,21.5701092 10.9833248,21.7975814 10.9833248,21.7975814 C10.9833248,21.7975814 7.63522808,23.0858761 7.09578528,23.3044698 C6.54715787,23.5255128 6.39040718,23.0142361 6.39040718,23.0142361 M30.2985611,14.9415757 C29.0451679,15.4317277 16.1456883,19.9236147 16.1456883,19.9236147 C16.1456883,19.9236147 15.5639963,20.2297683 14.7462598,19.9141239 C13.931891,19.6030717 0.641147056,14.9415757 0.641147056,14.9415757 C0.641147056,14.9415757 -0.0630064292,14.6002143 0.00465353608,15.3456985 L5.88464129,27.7917645 C5.88464129,27.7917645 6.18283498,28.5951117 6.95770997,28.5883764 L24.0236351,28.5834779 C24.0236351,28.5834779 24.6742117,28.6584856 25.0345545,27.9019798 C25.4004082,27.1402694 30.9806715,15.3456985 30.9806715,15.3456985 C30.9806715,15.3456985 31.0703745,14.6498112 30.2985611,14.9415757" id="Fill-12" fill="#FFFFFF" mask="url(#mask-2)"></path>
                <path d="M7.59343811,12.5503317 C7.59343811,12.5503317 6.91285845,12.2922441 6.74080008,12.7018777 L5.92673742,14.4757322 C5.92673742,14.4757322 5.66436371,15.0047658 6.21819573,15.1795795 C6.77937545,15.3510256 14.7859067,18.1388611 14.7859067,18.1388611 C14.7859067,18.1388611 15.2549342,18.3761302 15.9612307,18.1388611 L24.4903664,14.8532197 C24.4903664,14.8532197 24.9590877,14.6251352 24.9590877,13.8729156 L24.9590877,9.47777324 C24.9590877,9.47777324 24.95572,7.97792632 23.3533116,7.97792632 L9.53200327,7.97792632 C9.53200327,7.97792632 8.78774365,7.96751709 8.78774365,7.50063272 C8.78774365,7.03527911 8.78988672,6.60176549 8.78988672,6.60176549 C8.78988672,6.60176549 8.73722829,6.24019798 9.22248189,6.02925809 C9.71171548,5.81127666 14.7788652,3.73922849 14.7788652,3.73922849 C14.7788652,3.73922849 15.2390142,3.43429942 15.9612307,3.6982039 C16.6831411,3.95169915 23.3324931,6.33510562 23.3324931,6.33510562 C23.3324931,6.33510562 23.9512297,6.60635779 24.168905,6.08712113 C24.3871926,5.56880294 24.9655169,4.38674355 24.9655169,4.38674355 C24.9655169,4.38674355 25.2989183,3.8932238 24.4903664,3.63176855 C23.6845699,3.36480253 15.9612307,0.69085621 15.9612307,0.69085621 C15.9612307,0.69085621 15.5078171,0.453587101 14.7788652,0.69085621 C14.0526686,0.929656087 6.44964792,3.99425452 6.44964792,3.99425452 C6.44964792,3.99425452 5.92979896,4.1424329 5.92979896,5.17539545 C5.92979896,6.21662415 5.92673742,9.36082253 5.92673742,9.36082253 C5.92673742,9.36082253 6.00113277,10.8860802 7.5597612,10.8860802 L21.3985203,10.8860802 C21.3985203,10.8860802 22.0986937,10.8934279 22.0986937,11.3771507 L22.0986937,12.2236657 C22.0986937,12.2236657 22.159006,12.6106439 21.7251862,12.8068885 C21.2895295,13.0043576 15.9612307,15.1602919 15.9612307,15.1602919 C15.9612307,15.1602919 15.5044494,15.4241963 14.7788652,15.1602919 C14.0572609,14.9006735 7.59343811,12.5503317 7.59343811,12.5503317" id="Fill-13" fill="#FFFFFF" mask="url(#mask-2)"></path>
            </g>
        </g>
    </g>
</svg>