<?xml version="1.0" encoding="UTF-8" standalone="no"?>
<svg width="180px" height="29px" viewBox="0 0 180 29" version="1.1" xmlns="http://www.w3.org/2000/svg" xmlns:xlink="http://www.w3.org/1999/xlink">
    <!-- Generator: Sketch 39.1 (31720) - http://www.bohemiancoding.com/sketch -->
    <title>Group 7</title>
    <desc>Created with Sketch.</desc>
    <defs></defs>
    <g id="Page-1" stroke="none" stroke-width="1" fill="none" fill-rule="evenodd">
        <g id="Homepage" transform="translate(-21.000000, -24.000000)" fill="#FFFFFF">
            <g id="Group-7" transform="translate(21.000000, 24.000000)">
                <path d="M42.8291837,21.1491759 C43.2773469,22.8804555 44.5636735,23.7460953 46.8069388,23.7460953 C48.2708163,23.7460953 49.1377551,23.1200959 49.1377551,22.3137549 C49.1377551,20.7903266 47.6732653,20.8508481 44.922449,20.1343722 C40.2283673,18.9398382 37.9563265,17.26908 37.9563265,13.8658196 C37.9563265,9.92581361 41.3353061,7 46.865102,7 C50.9310204,7 53.7718367,8.82114474 55.087551,12.1956728 L49.7940816,13.717267 C49.1677551,12.2231825 48.1495918,11.6277495 46.4481633,11.6277495 C45.1912245,11.6277495 44.3242857,12.315493 44.3242857,13.1193887 C44.3242857,14.3438777 45.6712245,14.4031765 48.1208163,15.0010548 C50.1534694,15.5084567 52.0379592,15.8379622 53.6512245,17.1193048 C54.967551,18.1646749 55.6538776,19.6874918 55.6538776,21.5379802 C55.6538776,23.2698711 54.9357143,24.9125082 53.6230612,26.1351633 C51.9173469,27.7185016 49.5259184,28.5810848 46.6863265,28.5810848 C41.4234694,28.5810848 37.987551,26.2537609 37,22.2532334 L42.8291837,21.1491759 L42.8291837,21.1491759 Z" id="Fill-1-Copy-22"></path>
                <polygon id="Fill-3-Copy-22" points="57 7 63.3685714 7 63.3685714 14.6721606 68.2114286 14.6721606 68.2114286 7 74.5781633 7 74.5781633 27.7166677 68.2114286 27.7166677 68.2114286 19.5095954 63.3685714 19.5095954 63.3685714 27.7166677 57 27.7166677"></polygon>
                <polygon id="Fill-5-Copy-22" points="77 27.7166677 83.4867347 27.7166677 83.4867347 7 77 7"></polygon>
                <path d="M95.072449,15.7474858 C96.8069388,15.7474858 97.7944898,14.9723224 97.7944898,13.7197123 C97.7944898,12.4041355 96.9863265,11.6888822 95.46,11.6888822 L93.3685714,11.6888822 L93.3685714,15.7474858 L95.072449,15.7474858 Z M87,7 L95.8493878,7 C98.3614286,7 100.244694,7.27020677 101.560408,8.07593647 C103.502449,9.30103686 104.517551,11.2114354 104.517551,13.5687144 C104.517551,17.4494216 101.590408,20.1655499 97.045102,20.1655499 L93.3685714,20.1655499 L93.3685714,27.7166677 L87,27.7166677 L87,7 Z" id="Fill-7-Copy-22"></path>
                <path d="M109.829184,21.1491759 C110.277347,22.8804555 111.563061,23.7460953 113.805102,23.7460953 C115.270816,23.7460953 116.137143,23.1200959 116.137143,22.3137549 C116.137143,20.7903266 114.673265,20.8508481 111.923673,20.1343722 C107.228367,18.9398382 104.956939,17.26908 104.956939,13.8658196 C104.956939,9.92581361 108.334694,7 113.866327,7 C117.929184,7 120.771837,8.82114474 122.086939,12.1956728 L116.794082,13.717267 C116.168367,12.2231825 115.151429,11.6277495 113.446327,11.6277495 C112.190612,11.6277495 111.324898,12.315493 111.324898,13.1193887 C111.324898,14.3438777 112.67,14.4031765 115.121429,15.0010548 C117.154694,15.5084567 119.037347,15.8379622 120.651224,17.1193048 C121.965714,18.1646749 122.653878,19.6874918 122.653878,21.5379802 C122.653878,23.2698711 121.938776,24.9125082 120.622449,26.1351633 C118.916122,27.7185016 116.524694,28.5810848 113.685102,28.5810848 C108.423469,28.5810848 104.987551,26.2537609 104,22.2532334 L109.829184,21.1491759 Z" id="Fill-8-Copy-22"></path>
                <polygon id="Fill-9-Copy-22" points="125 7 140.63551 7 140.63551 11.8386575 131.069796 11.8386575 131.069796 14.8824573 138.93102 14.8824573 138.93102 19.3598202 131.069796 19.3598202 131.069796 22.8816782 140.754286 22.8816782 140.754286 27.7166677 125 27.7166677"></polygon>
                <path d="M149.308571,11.4192868 L149.308571,15.4803356 L152.329388,15.4803356 C153.881429,15.4803356 154.837755,14.5847408 154.837755,13.4495055 C154.837755,12.0758526 153.971429,11.4192868 152.238776,11.4192868 L149.308571,11.4192868 Z M143,7 L153.135102,7 C158.544898,7 161.265102,9.00209769 161.265102,13.0619239 C161.265102,15.8666946 159.98,17.8370033 157.647959,18.6732994 L161.385102,27.7166677 L154.571429,27.7166677 L151.49,19.8672221 L149.308571,19.8672221 L149.308571,27.7166677 L143,27.7166677 L143,7 Z" id="Fill-10-Copy-22"></path>
                <polygon id="Fill-11-Copy-22" points="160 7 166.636735 7 170.312653 20.9138148 174.198571 7 179.520204 7 172.883469 27.7166677 166.546122 27.7166677"></polygon>
                <path d="M25.6288265,19.0179084 C25.5296428,19.3871502 24.5745407,22.1479054 24.5745407,22.1479054 C24.5745407,22.1479054 24.417806,22.6577525 23.8710714,22.4376746 C23.3304591,22.2230987 19.9814795,20.9331975 19.9814795,20.9331975 C19.9814795,20.9331975 19.4586224,20.7088403 19.9814795,20.5376686 C20.5018877,20.3701649 25.3080101,18.7856039 25.3080101,18.7856039 C25.3080101,18.7856039 25.7261734,18.6505005 25.6288265,19.0179084 M23.4241326,24.644567 C23.4241326,24.644567 23.280255,24.9227211 23.2361734,24.9887444 C23.1920918,25.0529338 23.0555611,25.0657717 23.0555611,25.0657717 C21.8512754,25.3714355 16.0214795,25.5866228 15.4771938,25.5768415 C10.0973979,25.4924783 7.83576523,25.0810549 7.83576523,25.0810549 C7.75188768,25.0657717 7.7249489,24.9887444 7.7249489,24.9887444 C7.7249489,24.9887444 7.62147951,24.8212407 7.54372441,24.6476237 C7.46535706,24.4813426 7.78862237,24.366413 7.78862237,24.366413 C7.78862237,24.366413 15.2641326,21.9345521 15.3694387,21.8801439 C15.482704,21.8263471 15.5831122,21.8801439 15.5831122,21.8801439 L23.1920918,24.3529638 C23.5294387,24.4666707 23.4241326,24.644567 23.4241326,24.644567 M6.39025502,22.1375128 C6.39025502,22.1375128 5.43576523,19.3767576 5.33535706,19.0056818 C5.23739788,18.6394966 5.65433666,18.7715434 5.65433666,18.7715434 C5.65433666,18.7715434 10.4567856,20.357327 10.982704,20.5248308 C11.5098469,20.6960025 10.982704,20.922805 10.982704,20.922805 C10.982704,20.922805 7.63433666,22.2090381 7.09556115,22.4272821 C6.54698972,22.6479713 6.39025502,22.1375128 6.39025502,22.1375128 M30.2959693,14.0777705 C29.042704,14.5668325 16.1445407,19.0515314 16.1445407,19.0515314 C16.1445407,19.0515314 15.5629081,19.3571952 14.7449489,19.0423615 C13.9312754,18.7318071 0.641275432,14.0777705 0.641275432,14.0777705 C0.641275432,14.0777705 -0.0628062006,13.7372611 0.00454073815,14.4812467 L5.88454074,26.9070903 C5.88454074,26.9070903 6.182704,27.709152 6.9571938,27.7030387 L24.0216836,27.6981481 C24.0216836,27.6981481 24.6718877,27.7727301 25.0318877,27.0171292 C25.3980101,26.2566378 30.9780101,14.4812467 30.9780101,14.4812467 C30.9780101,14.4812467 31.0673979,13.7861673 30.2959693,14.0777705" id="Fill-12-Copy-22"></path>
                <path d="M7.7287395,11.9459515 C7.7287395,11.9459515 7.04792317,11.6885826 6.87588235,12.0975607 L6.06220889,13.8685766 C6.06220889,13.8685766 5.79955582,14.3961522 6.35363746,14.5709919 C6.91445378,14.7421636 14.9207803,17.5255379 14.9207803,17.5255379 C14.9207803,17.5255379 15.3897599,17.7621217 16.0956783,17.5255379 L24.6236375,14.2451543 C24.6236375,14.2451543 25.092617,14.0171292 25.092617,13.2664189 L25.092617,8.87830986 C25.092617,8.87830986 25.0895558,7.38116871 23.4873109,7.38116871 L9.66710684,7.38116871 C9.66710684,7.38116871 8.92322929,7.37016482 8.92322929,6.90433323 C8.92322929,6.4397243 8.92506603,6.00690441 8.92506603,6.00690441 C8.92506603,6.00690441 8.87241297,5.64622116 9.35792317,5.43531316 C9.8464946,5.21768055 14.9134334,3.14894816 14.9134334,3.14894816 C14.9134334,3.14894816 15.3732293,2.84450704 16.0956783,3.10798921 C16.817515,3.36107881 23.4664946,5.7403656 23.4664946,5.7403656 C23.4664946,5.7403656 24.0848619,6.0111837 24.3028211,5.49277794 C24.5207803,4.97559485 25.0993517,3.79512137 25.0993517,3.79512137 C25.0993517,3.79512137 25.432413,3.3030027 24.6236375,3.04196584 C23.8185354,2.77542703 16.0956783,0.105148337 16.0956783,0.105148337 C16.0956783,0.105148337 15.6420048,-0.131435421 14.9134334,0.105148337 C14.1873109,0.343566077 6.58506603,3.40326041 6.58506603,3.40326041 C6.58506603,3.40326041 6.06527011,3.55120168 6.06527011,4.58312257 C6.06527011,5.62237938 6.06220889,8.7615463 6.06220889,8.7615463 C6.06220889,8.7615463 6.13629052,10.2843632 7.69506603,10.2843632 L21.532413,10.2843632 C21.532413,10.2843632 22.2328211,10.2916991 22.2328211,10.7746479 L22.2328211,11.6195025 C22.2328211,11.6195025 22.2928211,12.0064729 21.8593517,12.2020977 C21.4234334,12.3995565 16.0956783,14.5514294 16.0956783,14.5514294 C16.0956783,14.5514294 15.6389436,14.8149116 14.9134334,14.5514294 C14.1922089,14.2922266 7.7287395,11.9459515 7.7287395,11.9459515" id="Fill-13-Copy-22"></path>
            </g>
        </g>
    </g>
</svg>