<?xml version="1.0" encoding="UTF-8" standalone="no"?>
<svg width="31px" height="29px" viewBox="0 0 31 29" version="1.1" xmlns="http://www.w3.org/2000/svg" xmlns:xlink="http://www.w3.org/1999/xlink">
    <!-- Generator: Sketch 39.1 (31720) - http://www.bohemiancoding.com/sketch -->
    <title>Group 7</title>
    <desc>Created with Sketch.</desc>
    <defs></defs>
    <g id="Page-1" stroke="none" stroke-width="1" fill="none" fill-rule="evenodd">
        <g id="Homepage" transform="translate(-21.000000, -24.000000)" fill="#FFFFFF">
            <g id="Group-7" transform="translate(21.000000, 24.000000)">
                <path d="M25.6288265,19.0179084 C25.5296428,19.3871502 24.5745407,22.1479054 24.5745407,22.1479054 C24.5745407,22.1479054 24.417806,22.6577525 23.8710714,22.4376746 C23.3304591,22.2230987 19.9814795,20.9331975 19.9814795,20.9331975 C19.9814795,20.9331975 19.4586224,20.7088403 19.9814795,20.5376686 C20.5018877,20.3701649 25.3080101,18.7856039 25.3080101,18.7856039 C25.3080101,18.7856039 25.7261734,18.6505005 25.6288265,19.0179084 M23.4241326,24.644567 C23.4241326,24.644567 23.280255,24.9227211 23.2361734,24.9887444 C23.1920918,25.0529338 23.0555611,25.0657717 23.0555611,25.0657717 C21.8512754,25.3714355 16.0214795,25.5866228 15.4771938,25.5768415 C10.0973979,25.4924783 7.83576523,25.0810549 7.83576523,25.0810549 C7.75188768,25.0657717 7.7249489,24.9887444 7.7249489,24.9887444 C7.7249489,24.9887444 7.62147951,24.8212407 7.54372441,24.6476237 C7.46535706,24.4813426 7.78862237,24.366413 7.78862237,24.366413 C7.78862237,24.366413 15.2641326,21.9345521 15.3694387,21.8801439 C15.482704,21.8263471 15.5831122,21.8801439 15.5831122,21.8801439 L23.1920918,24.3529638 C23.5294387,24.4666707 23.4241326,24.644567 23.4241326,24.644567 M6.39025502,22.1375128 C6.39025502,22.1375128 5.43576523,19.3767576 5.33535706,19.0056818 C5.23739788,18.6394966 5.65433666,18.7715434 5.65433666,18.7715434 C5.65433666,18.7715434 10.4567856,20.357327 10.982704,20.5248308 C11.5098469,20.6960025 10.982704,20.922805 10.982704,20.922805 C10.982704,20.922805 7.63433666,22.2090381 7.09556115,22.4272821 C6.54698972,22.6479713 6.39025502,22.1375128 6.39025502,22.1375128 M30.2959693,14.0777705 C29.042704,14.5668325 16.1445407,19.0515314 16.1445407,19.0515314 C16.1445407,19.0515314 15.5629081,19.3571952 14.7449489,19.0423615 C13.9312754,18.7318071 0.641275432,14.0777705 0.641275432,14.0777705 C0.641275432,14.0777705 -0.0628062006,13.7372611 0.00454073815,14.4812467 L5.88454074,26.9070903 C5.88454074,26.9070903 6.182704,27.709152 6.9571938,27.7030387 L24.0216836,27.6981481 C24.0216836,27.6981481 24.6718877,27.7727301 25.0318877,27.0171292 C25.3980101,26.2566378 30.9780101,14.4812467 30.9780101,14.4812467 C30.9780101,14.4812467 31.0673979,13.7861673 30.2959693,14.0777705" id="Fill-12-Copy-22"></path>
                <path d="M7.7287395,11.9459515 C7.7287395,11.9459515 7.04792317,11.6885826 6.87588235,12.0975607 L6.06220889,13.8685766 C6.06220889,13.8685766 5.79955582,14.3961522 6.35363746,14.5709919 C6.91445378,14.7421636 14.9207803,17.5255379 14.9207803,17.5255379 C14.9207803,17.5255379 15.3897599,17.7621217 16.0956783,17.5255379 L24.6236375,14.2451543 C24.6236375,14.2451543 25.092617,14.0171292 25.092617,13.2664189 L25.092617,8.87830986 C25.092617,8.87830986 25.0895558,7.38116871 23.4873109,7.38116871 L9.66710684,7.38116871 C9.66710684,7.38116871 8.92322929,7.37016482 8.92322929,6.90433323 C8.92322929,6.4397243 8.92506603,6.00690441 8.92506603,6.00690441 C8.92506603,6.00690441 8.87241297,5.64622116 9.35792317,5.43531316 C9.8464946,5.21768055 14.9134334,3.14894816 14.9134334,3.14894816 C14.9134334,3.14894816 15.3732293,2.84450704 16.0956783,3.10798921 C16.817515,3.36107881 23.4664946,5.7403656 23.4664946,5.7403656 C23.4664946,5.7403656 24.0848619,6.0111837 24.3028211,5.49277794 C24.5207803,4.97559485 25.0993517,3.79512137 25.0993517,3.79512137 C25.0993517,3.79512137 25.432413,3.3030027 24.6236375,3.04196584 C23.8185354,2.77542703 16.0956783,0.105148337 16.0956783,0.105148337 C16.0956783,0.105148337 15.6420048,-0.131435421 14.9134334,0.105148337 C14.1873109,0.343566077 6.58506603,3.40326041 6.58506603,3.40326041 C6.58506603,3.40326041 6.06527011,3.55120168 6.06527011,4.58312257 C6.06527011,5.62237938 6.06220889,8.7615463 6.06220889,8.7615463 C6.06220889,8.7615463 6.13629052,10.2843632 7.69506603,10.2843632 L21.532413,10.2843632 C21.532413,10.2843632 22.2328211,10.2916991 22.2328211,10.7746479 L22.2328211,11.6195025 C22.2328211,11.6195025 22.2928211,12.0064729 21.8593517,12.2020977 C21.4234334,12.3995565 16.0956783,14.5514294 16.0956783,14.5514294 C16.0956783,14.5514294 15.6389436,14.8149116 14.9134334,14.5514294 C14.1922089,14.2922266 7.7287395,11.9459515 7.7287395,11.9459515" id="Fill-13-Copy-22"></path>
            </g>
        </g>
    </g>
</svg>