<?xml version="1.0" encoding="UTF-8" standalone="no"?>
<svg
   xmlns:dc="http://purl.org/dc/elements/1.1/"
   xmlns:cc="http://creativecommons.org/ns#"
   xmlns:rdf="http://www.w3.org/1999/02/22-rdf-syntax-ns#"
   xmlns:svg="http://www.w3.org/2000/svg"
   xmlns="http://www.w3.org/2000/svg"
   xmlns:xlink="http://www.w3.org/1999/xlink"
   id="svg38"
   version="1.1"
   viewBox="0 0 150 199.99999"
   height="200"
   width="150">
  <metadata
     id="metadata42">
    <rdf:RDF>
      <cc:Work
         rdf:about="">
        <dc:format>image/svg+xml</dc:format>
        <dc:type
           rdf:resource="http://purl.org/dc/dcmitype/StillImage" />
        <dc:title>Group</dc:title>
      </cc:Work>
    </rdf:RDF>
  </metadata>
  <!-- Generator: Sketch 42 (36781) - http://www.bohemiancoding.com/sketch -->
  <title
     id="title2">Group</title>
  <desc
     id="desc4">Created with Sketch.</desc>
  <defs
     id="defs8">
    <path
       id="path-1"
       d="m 0,125 c 0,69.035 55.964,125 125,125 69.035,0 125,-55.965 125,-125 C 250,55.965 194.035,0 125,0 55.964,0 0,55.965 0,125 Z" />
    <polygon
       points="0,0 0,260 260,260 260,0 "
       id="path-3" />
  </defs>
  <g
     transform="translate(-73.298652,11.651306)"
     style="fill:none;fill-rule:evenodd;stroke:none;stroke-width:1"
     id="Page-1">
    <g
       transform="translate(-5,-5)"
       id="Group">
      <path
         style="opacity:1;fill:#97a6b8;fill-opacity:1"
         id="Fill-4"
         d="m 157.56465,61.674348 h 36.234 c 0,4.906 -0.937,9.57 -2.812,13.992 -1.875,4.422 -4.5,8.289 -7.875,11.602 z m 33.234,-6 h -36 v -36 c 6.532,0 12.555,1.609 18.071,4.828 5.515,3.219 9.883,7.586 13.101,13.102 3.219,5.515 4.828,11.539 4.828,18.07 z m -42,5.719 25.594,25.594 c -3.312,3.375 -7.18,6 -11.601,7.875 -4.422,1.875 -9.086,2.812 -13.993,2.812 -6.531,0 -12.555,-1.609 -18.07,-4.828 -5.516,-3.219 -9.883,-7.586 -13.102,-13.102 -3.218,-5.515 -4.828,-11.539 -4.828,-18.07 0,-6.531 1.61,-12.555 4.828,-18.07 3.219,-5.516 7.586,-9.883 13.102,-13.102 5.515,-3.219 11.539,-4.828 18.07,-4.828 z" />
      <mask
         fill="white"
         id="mask-4">
        <use
           height="100%"
           width="100%"
           y="0"
           x="0"
           id="use26"
           xlink:href="#path-3" />
      </mask>
      <g
         id="Clip-25" />
      <g
         id="flowRoot4519"
         style="font-style:normal;font-weight:normal;font-size:40px;line-height:1.25;font-family:sans-serif;text-align:center;letter-spacing:0px;word-spacing:0px;text-anchor:middle;fill:#97a6b8;fill-opacity:1;stroke:none"
         transform="matrix(0.63859043,0,0,0.63859043,52.640836,-27.18703)"
         aria-label="No data
available">
        <path
           id="path4529"
           style="fill:#97a6b8;fill-opacity:1"
           d="m 82.78125,224.39648 h 5.3125 l 12.92969,24.39454 v -24.39454 h 3.82812 v 29.16016 H 99.539062 L 86.609375,229.16211 v 24.39453 H 82.78125 Z" />
        <path
           id="path4531"
           style="fill:#97a6b8;fill-opacity:1"
           d="m 121.02344,234.20117 q -2.89063,0 -4.57031,2.26563 -1.67969,2.24609 -1.67969,6.17187 0,3.92578 1.66015,6.19141 1.67969,2.24609 4.58985,2.24609 2.87109,0 4.55078,-2.26562 1.67969,-2.26563 1.67969,-6.17188 0,-3.88672 -1.67969,-6.15234 -1.67969,-2.28516 -4.55078,-2.28516 z m 0,-3.04687 q 4.6875,0 7.36328,3.04687 2.67578,3.04688 2.67578,8.4375 0,5.3711 -2.67578,8.4375 -2.67578,3.04688 -7.36328,3.04688 -4.70703,0 -7.38281,-3.04688 -2.65625,-3.0664 -2.65625,-8.4375 0,-5.39062 2.65625,-8.4375 2.67578,-3.04687 7.38281,-3.04687 z" />
        <path
           id="path4533"
           style="fill:#97a6b8;fill-opacity:1"
           d="m 164.12891,235.00195 v -11.83593 h 3.59375 v 30.39062 h -3.59375 v -3.28125 q -1.13282,1.95313 -2.8711,2.91016 -1.71875,0.9375 -4.14062,0.9375 -3.96485,0 -6.46485,-3.16407 -2.48047,-3.16406 -2.48047,-8.32031 0,-5.15625 2.48047,-8.32031 2.5,-3.16406 6.46485,-3.16406 2.42187,0 4.14062,0.95703 1.73828,0.9375 2.8711,2.89062 z m -12.2461,7.63672 q 0,3.96485 1.6211,6.23047 1.64062,2.24609 4.49218,2.24609 2.85157,0 4.49219,-2.24609 1.64063,-2.26562 1.64063,-6.23047 0,-3.96484 -1.64063,-6.21094 -1.64062,-2.26562 -4.49219,-2.26562 -2.85156,0 -4.49218,2.26562 -1.6211,2.2461 -1.6211,6.21094 z" />
        <path
           id="path4535"
           style="fill:#97a6b8;fill-opacity:1"
           d="m 185.06641,242.56055 q -4.35547,0 -6.03516,0.99609 -1.67969,0.99609 -1.67969,3.39844 0,1.91406 1.25,3.04687 1.26953,1.11328 3.4375,1.11328 2.98828,0 4.78516,-2.10937 1.8164,-2.12891 1.8164,-5.64453 v -0.80078 z m 7.16796,-1.48438 v 12.48047 h -3.59375 v -3.32031 q -1.23046,1.99219 -3.0664,2.94922 -1.83594,0.9375 -4.49219,0.9375 -3.35937,0 -5.35156,-1.875 -1.97266,-1.89453 -1.97266,-5.0586 0,-3.6914 2.46094,-5.5664 2.48047,-1.875 7.38281,-1.875 h 5.03906 v -0.35157 q 0,-2.48046 -1.64062,-3.82812 -1.62109,-1.36719 -4.57031,-1.36719 -1.875,0 -3.65235,0.44922 -1.77734,0.44922 -3.41797,1.34766 v -3.32032 q 1.97266,-0.76171 3.82813,-1.13281 1.85547,-0.39062 3.61328,-0.39062 4.74609,0 7.08984,2.46093 2.34375,2.46094 2.34375,7.46094 z" />
        <path
           id="path4537"
           style="fill:#97a6b8;fill-opacity:1"
           d="m 203.21094,225.4707 v 6.21094 h 7.40234 v 2.79297 h -7.40234 v 11.875 q 0,2.67578 0.72265,3.4375 0.74219,0.76172 2.98828,0.76172 h 3.69141 v 3.00781 h -3.69141 q -4.16015,0 -5.74218,-1.54297 -1.58203,-1.5625 -1.58203,-5.66406 v -11.875 h -2.63672 v -2.79297 h 2.63672 v -6.21094 z" />
        <path
           id="path4539"
           style="fill:#97a6b8;fill-opacity:1"
           d="m 225.30078,242.56055 q -4.35547,0 -6.03516,0.99609 -1.67968,0.99609 -1.67968,3.39844 0,1.91406 1.25,3.04687 1.26953,1.11328 3.4375,1.11328 2.98828,0 4.78515,-2.10937 1.81641,-2.12891 1.81641,-5.64453 v -0.80078 z m 7.16797,-1.48438 v 12.48047 H 228.875 v -3.32031 q -1.23047,1.99219 -3.06641,2.94922 -1.83593,0.9375 -4.49218,0.9375 -3.35938,0 -5.35157,-1.875 -1.97265,-1.89453 -1.97265,-5.0586 0,-3.6914 2.46093,-5.5664 2.48047,-1.875 7.38282,-1.875 h 5.03906 v -0.35157 q 0,-2.48046 -1.64063,-3.82812 -1.62109,-1.36719 -4.57031,-1.36719 -1.875,0 -3.65234,0.44922 -1.77735,0.44922 -3.41797,1.34766 v -3.32032 q 1.97266,-0.76171 3.82812,-1.13281 1.85547,-0.39062 3.61329,-0.39062 4.74609,0 7.08984,2.46093 2.34375,2.46094 2.34375,7.46094 z" />
        <path
           id="path4541"
           style="fill:#97a6b8;fill-opacity:1"
           d="m 80.925781,292.56055 q -4.355469,0 -6.035156,0.99609 -1.679688,0.99609 -1.679688,3.39844 0,1.91406 1.25,3.04687 1.269532,1.11328 3.4375,1.11328 2.988282,0 4.785157,-2.10937 Q 84.5,296.87695 84.5,293.36133 v -0.80078 z m 7.167969,-1.48438 v 12.48047 H 84.5 v -3.32031 q -1.230469,1.99219 -3.066406,2.94922 -1.835938,0.9375 -4.492188,0.9375 -3.359375,0 -5.351562,-1.875 -1.972657,-1.89453 -1.972657,-5.0586 0,-3.6914 2.460938,-5.5664 2.480469,-1.875 7.382812,-1.875 H 84.5 v -0.35157 q 0,-2.48046 -1.640625,-3.82812 -1.621094,-1.36719 -4.570313,-1.36719 -1.875,0 -3.652343,0.44922 -1.777344,0.44922 -3.417969,1.34766 v -3.32032 q 1.972656,-0.76171 3.828125,-1.13281 1.855469,-0.39062 3.613281,-0.39062 4.746094,0 7.089844,2.46093 2.34375,2.46094 2.34375,7.46094 z" />
        <path
           id="path4543"
           style="fill:#97a6b8;fill-opacity:1"
           d="m 92.9375,281.68164 h 3.808594 l 6.835936,18.35938 6.83594,-18.35938 h 3.80859 l -8.20312,21.875 h -4.88281 z" />
        <path
           id="path4545"
           style="fill:#97a6b8;fill-opacity:1"
           d="m 129.12891,292.56055 q -4.35547,0 -6.03516,0.99609 -1.67969,0.99609 -1.67969,3.39844 0,1.91406 1.25,3.04687 1.26953,1.11328 3.4375,1.11328 2.98828,0 4.78516,-2.10937 1.8164,-2.12891 1.8164,-5.64453 v -0.80078 z m 7.16796,-1.48438 v 12.48047 h -3.59375 v -3.32031 q -1.23046,1.99219 -3.0664,2.94922 -1.83594,0.9375 -4.49219,0.9375 -3.35937,0 -5.35156,-1.875 -1.97266,-1.89453 -1.97266,-5.0586 0,-3.6914 2.46094,-5.5664 2.48047,-1.875 7.38281,-1.875 h 5.03906 v -0.35157 q 0,-2.48046 -1.64062,-3.82812 -1.62109,-1.36719 -4.57031,-1.36719 -1.875,0 -3.65235,0.44922 -1.77734,0.44922 -3.41796,1.34766 v -3.32032 q 1.97265,-0.76171 3.82812,-1.13281 1.85547,-0.39062 3.61328,-0.39062 4.74609,0 7.08984,2.46093 2.34375,2.46094 2.34375,7.46094 z" />
        <path
           id="path4547"
           style="fill:#97a6b8;fill-opacity:1"
           d="m 143.71875,281.68164 h 3.59375 v 21.875 h -3.59375 z m 0,-8.51562 h 3.59375 v 4.55078 h -3.59375 z" />
        <path
           id="path4549"
           style="fill:#97a6b8;fill-opacity:1"
           d="m 154.8125,273.16602 h 3.59375 v 30.39062 h -3.59375 z" />
        <path
           id="path4551"
           style="fill:#97a6b8;fill-opacity:1"
           d="m 175.84766,292.56055 q -4.35547,0 -6.03516,0.99609 -1.67969,0.99609 -1.67969,3.39844 0,1.91406 1.25,3.04687 1.26953,1.11328 3.4375,1.11328 2.98828,0 4.78516,-2.10937 1.8164,-2.12891 1.8164,-5.64453 v -0.80078 z m 7.16796,-1.48438 v 12.48047 h -3.59375 v -3.32031 q -1.23046,1.99219 -3.0664,2.94922 -1.83594,0.9375 -4.49219,0.9375 -3.35937,0 -5.35156,-1.875 -1.97266,-1.89453 -1.97266,-5.0586 0,-3.6914 2.46094,-5.5664 2.48047,-1.875 7.38281,-1.875 h 5.03906 v -0.35157 q 0,-2.48046 -1.64062,-3.82812 -1.62109,-1.36719 -4.57031,-1.36719 -1.875,0 -3.65235,0.44922 -1.77734,0.44922 -3.41797,1.34766 v -3.32032 q 1.97266,-0.76171 3.82813,-1.13281 1.85547,-0.39062 3.61328,-0.39062 4.74609,0 7.08984,2.46093 2.34375,2.46094 2.34375,7.46094 z" />
        <path
           id="path4553"
           style="fill:#97a6b8;fill-opacity:1"
           d="m 206.14062,292.63867 q 0,-3.96484 -1.64062,-6.21094 -1.62109,-2.26562 -4.47266,-2.26562 -2.85156,0 -4.49218,2.26562 -1.6211,2.2461 -1.6211,6.21094 0,3.96485 1.6211,6.23047 1.64062,2.24609 4.49218,2.24609 2.85157,0 4.47266,-2.24609 1.64062,-2.26562 1.64062,-6.23047 z m -12.22656,-7.63672 q 1.13281,-1.95312 2.85156,-2.89062 1.73829,-0.95703 4.14063,-0.95703 3.98437,0 6.46484,3.16406 2.5,3.16406 2.5,8.32031 0,5.15625 -2.5,8.32031 -2.48047,3.16407 -6.46484,3.16407 -2.40234,0 -4.14063,-0.9375 -1.71875,-0.95703 -2.85156,-2.91016 v 3.28125 h -3.61328 v -30.39062 h 3.61328 z" />
        <path
           id="path4555"
           style="fill:#97a6b8;fill-opacity:1"
           d="m 215.82812,273.16602 h 3.59375 v 30.39062 h -3.59375 z" />
        <path
           id="path4557"
           style="fill:#97a6b8;fill-opacity:1"
           d="m 245.63281,291.7207 v 1.75782 h -16.52344 q 0.23438,3.71093 2.22657,5.66406 2.01172,1.93359 5.58593,1.93359 2.07032,0 4.00391,-0.50781 1.95313,-0.50781 3.86719,-1.52344 v 3.39844 q -1.9336,0.82031 -3.96485,1.25 -2.03125,0.42969 -4.12109,0.42969 -5.23437,0 -8.30078,-3.04688 -3.04688,-3.04687 -3.04688,-8.24219 0,-5.37109 2.89063,-8.51562 2.91016,-3.16406 7.83203,-3.16406 4.41406,0 6.97266,2.85156 2.57812,2.83203 2.57812,7.71484 z m -3.59375,-1.05468 q -0.0391,-2.94922 -1.66015,-4.70704 -1.60157,-1.75781 -4.25782,-1.75781 -3.00781,0 -4.82422,1.69922 -1.79687,1.69922 -2.07031,4.78516 z" />
      </g>
    </g>
  </g>
</svg>
