<?xml version="1.0" encoding="utf-8"?>
<!-- Generator: Adobe Illustrator 15.0.0, SVG Export Plug-In . SVG Version: 6.00 Build 0)  -->
<!DOCTYPE svg PUBLIC "-//W3C//DTD SVG 1.1//EN" "http://www.w3.org/Graphics/SVG/1.1/DTD/svg11.dtd">
<svg version="1.1" id="Layer_1" xmlns="http://www.w3.org/2000/svg" xmlns:xlink="http://www.w3.org/1999/xlink" x="0px" y="0px"
	 width="100px" height="100px" viewBox="0 0 100 100" enable-background="new 0 0 100 100" xml:space="preserve">
<g>
	<rect fill="#9BA7BB" width="100" height="100"/>
	<g>
		<defs>
			<path id="SVGID_1_" d="M61.015,32.241c0,2.885-1.926,5.835-5.778,8.851c-1.54,1.212-3.287,2.335-5.236,3.368V16.506h11.015
				V32.241z M65.269,12.252c-0.312-0.311-0.682-0.467-1.107-0.467H35.839c-0.426,0-0.796,0.156-1.106,0.467
				c-0.312,0.312-0.467,0.681-0.467,1.106v18.882c0,1.41,0.273,2.807,0.822,4.192c0.55,1.385,1.229,2.614,2.041,3.688
				c0.812,1.074,1.778,2.118,2.901,3.134c1.123,1.017,2.16,1.861,3.11,2.533s1.942,1.307,2.975,1.905
				c1.032,0.599,1.767,1.004,2.201,1.217c0.434,0.214,0.782,0.377,1.043,0.492C49.558,49.5,49.77,49.55,50,49.55
				s0.442-0.05,0.64-0.148c0.262-0.114,0.61-0.278,1.044-0.492c0.435-0.213,1.168-0.618,2.201-1.217
				c1.032-0.598,2.024-1.232,2.974-1.905c0.951-0.672,1.988-1.516,3.111-2.533c1.123-1.016,2.09-2.061,2.901-3.134
				c0.812-1.074,1.491-2.303,2.041-3.688c0.549-1.385,0.822-2.782,0.822-4.192V13.358C65.734,12.932,65.579,12.564,65.269,12.252z"
				/>
		</defs>
		<use xlink:href="#SVGID_1_"  overflow="visible" fill-rule="evenodd" clip-rule="evenodd" fill="#FFFFFF"/>
		<clipPath id="SVGID_2_">
			<use xlink:href="#SVGID_1_"  overflow="visible"/>
		</clipPath>
		<g clip-path="url(#SVGID_2_)">
			<defs>
				<rect id="SVGID_3_" x="34.006" y="11.656" width="31.987" height="38.022"/>
			</defs>
			<use xlink:href="#SVGID_3_"  overflow="visible" fill="#FFFFFF"/>
			<clipPath id="SVGID_4_">
				<use xlink:href="#SVGID_3_"  overflow="visible"/>
			</clipPath>
			<rect x="32.756" y="10.276" clip-path="url(#SVGID_4_)" fill="#FFFFFF" width="34.487" height="40.783"/>
		</g>
	</g>
	<g>
		<path fill="#FFFFFF" d="M27.008,67.939v1.568h-6.656v-11.52h1.872v9.952H27.008z"/>
		<path fill="#FFFFFF" d="M31.327,61.219c0.603,0,1.147,0.099,1.636,0.296c0.488,0.198,0.904,0.478,1.248,0.84
			s0.609,0.803,0.796,1.32c0.187,0.518,0.28,1.099,0.28,1.744s-0.094,1.227-0.28,1.744c-0.187,0.518-0.452,0.959-0.796,1.324
			s-0.76,0.647-1.248,0.844s-1.033,0.296-1.636,0.296c-0.608,0-1.156-0.099-1.645-0.296c-0.487-0.197-0.905-0.479-1.252-0.844
			s-0.613-0.807-0.8-1.324c-0.187-0.517-0.28-1.098-0.28-1.744s0.094-1.227,0.28-1.744c0.187-0.517,0.453-0.957,0.8-1.32
			s0.765-0.643,1.252-0.84C30.171,61.317,30.719,61.219,31.327,61.219z M31.327,68.283c0.735,0,1.284-0.247,1.644-0.74
			c0.36-0.493,0.54-1.199,0.54-2.116c0-0.917-0.18-1.625-0.54-2.124c-0.359-0.499-0.908-0.748-1.644-0.748
			c-0.747,0-1.302,0.25-1.664,0.748c-0.363,0.499-0.544,1.207-0.544,2.124c0,0.917,0.181,1.623,0.544,2.116
			C30.025,68.036,30.58,68.283,31.327,68.283z"/>
		<path fill="#FFFFFF" d="M43.911,61.643v0.64c0,0.213-0.128,0.344-0.384,0.392l-0.816,0.136c0.139,0.309,0.208,0.653,0.208,1.032
			c0,0.4-0.079,0.763-0.236,1.088c-0.157,0.326-0.374,0.603-0.651,0.832c-0.277,0.229-0.608,0.405-0.992,0.528
			c-0.384,0.123-0.8,0.184-1.248,0.184c-0.171,0-0.337-0.009-0.5-0.028c-0.163-0.019-0.321-0.044-0.476-0.076
			c-0.155,0.091-0.27,0.187-0.345,0.288c-0.074,0.102-0.111,0.206-0.111,0.312c0,0.176,0.077,0.307,0.231,0.392
			c0.155,0.085,0.358,0.147,0.612,0.184c0.253,0.037,0.543,0.062,0.868,0.072c0.325,0.011,0.656,0.03,0.992,0.056
			c0.336,0.027,0.666,0.071,0.991,0.132c0.325,0.062,0.615,0.163,0.868,0.304c0.254,0.142,0.457,0.332,0.612,0.572
			c0.154,0.24,0.231,0.552,0.231,0.936c0,0.352-0.088,0.696-0.264,1.032s-0.431,0.635-0.764,0.896
			c-0.334,0.261-0.74,0.471-1.22,0.628c-0.48,0.157-1.027,0.236-1.641,0.236c-0.607,0-1.138-0.059-1.588-0.176
			c-0.451-0.117-0.827-0.276-1.128-0.476c-0.302-0.2-0.525-0.431-0.672-0.692s-0.22-0.533-0.22-0.816
			c0-0.384,0.121-0.712,0.363-0.984c0.243-0.272,0.572-0.485,0.988-0.64c-0.224-0.107-0.404-0.253-0.54-0.44
			c-0.136-0.187-0.204-0.432-0.204-0.736c0-0.24,0.088-0.49,0.264-0.752c0.177-0.261,0.44-0.482,0.792-0.664
			c-0.405-0.224-0.725-0.521-0.96-0.892c-0.234-0.371-0.352-0.804-0.352-1.3c0-0.405,0.079-0.771,0.236-1.096
			c0.157-0.326,0.377-0.603,0.66-0.832c0.282-0.229,0.617-0.405,1.004-0.528c0.387-0.123,0.809-0.184,1.268-0.184
			c0.704,0,1.317,0.147,1.84,0.44H43.911z M42.183,69.907c0-0.181-0.052-0.327-0.155-0.436c-0.104-0.109-0.244-0.194-0.42-0.256
			c-0.177-0.061-0.382-0.106-0.616-0.136c-0.235-0.029-0.484-0.05-0.748-0.064c-0.264-0.013-0.533-0.026-0.809-0.04
			c-0.274-0.013-0.539-0.039-0.796-0.076c-0.256,0.133-0.465,0.293-0.628,0.48c-0.162,0.187-0.244,0.402-0.244,0.648
			c0,0.16,0.042,0.309,0.124,0.448c0.083,0.139,0.211,0.259,0.385,0.36c0.173,0.101,0.395,0.181,0.664,0.24
			c0.269,0.059,0.593,0.088,0.972,0.088c0.757,0,1.325-0.117,1.704-0.352C41.994,70.576,42.183,70.275,42.183,69.907z
			 M39.791,65.355c0.533,0,0.934-0.136,1.2-0.408s0.399-0.626,0.399-1.064c0-0.448-0.133-0.803-0.399-1.064s-0.667-0.392-1.2-0.392
			c-0.528,0-0.927,0.131-1.196,0.392s-0.403,0.616-0.403,1.064c0,0.213,0.034,0.411,0.104,0.592
			c0.069,0.182,0.171,0.337,0.304,0.468c0.134,0.131,0.301,0.232,0.5,0.304C39.299,65.319,39.529,65.355,39.791,65.355z"/>
		<path fill="#FFFFFF" d="M48.663,61.219c0.603,0,1.147,0.099,1.636,0.296c0.488,0.198,0.904,0.478,1.248,0.84
			s0.609,0.803,0.796,1.32c0.187,0.518,0.28,1.099,0.28,1.744s-0.094,1.227-0.28,1.744c-0.187,0.518-0.452,0.959-0.796,1.324
			s-0.76,0.647-1.248,0.844s-1.033,0.296-1.636,0.296c-0.608,0-1.156-0.099-1.645-0.296c-0.487-0.197-0.905-0.479-1.252-0.844
			s-0.613-0.807-0.8-1.324c-0.187-0.517-0.28-1.098-0.28-1.744s0.094-1.227,0.28-1.744c0.187-0.517,0.453-0.957,0.8-1.32
			s0.765-0.643,1.252-0.84C47.507,61.317,48.055,61.219,48.663,61.219z M48.663,68.283c0.735,0,1.284-0.247,1.644-0.74
			c0.36-0.493,0.54-1.199,0.54-2.116c0-0.917-0.18-1.625-0.54-2.124c-0.359-0.499-0.908-0.748-1.644-0.748
			c-0.747,0-1.302,0.25-1.664,0.748c-0.363,0.499-0.544,1.207-0.544,2.124c0,0.917,0.181,1.623,0.544,2.116
			C47.361,68.036,47.916,68.283,48.663,68.283z"/>
		<path fill="#FFFFFF" d="M59.863,62.427c0.176-0.181,0.358-0.345,0.548-0.492c0.189-0.147,0.391-0.273,0.604-0.38
			c0.214-0.106,0.44-0.189,0.681-0.248c0.239-0.059,0.501-0.088,0.784-0.088c0.447,0,0.841,0.075,1.18,0.224s0.624,0.36,0.855,0.632
			c0.232,0.272,0.407,0.599,0.524,0.98c0.117,0.381,0.176,0.802,0.176,1.26v5.192h-1.712v-5.192c0-0.549-0.127-0.976-0.38-1.28
			c-0.253-0.304-0.639-0.456-1.156-0.456c-0.384,0-0.74,0.088-1.067,0.264c-0.328,0.176-0.637,0.416-0.925,0.72v5.944h-1.72v-8.16
			h1.04c0.234,0,0.384,0.109,0.448,0.328L59.863,62.427z"/>
		<path fill="#FFFFFF" d="M70.759,61.219c0.603,0,1.147,0.099,1.636,0.296c0.488,0.198,0.904,0.478,1.248,0.84
			s0.609,0.803,0.796,1.32c0.187,0.518,0.28,1.099,0.28,1.744s-0.094,1.227-0.28,1.744c-0.187,0.518-0.452,0.959-0.796,1.324
			s-0.76,0.647-1.248,0.844s-1.033,0.296-1.636,0.296c-0.608,0-1.156-0.099-1.645-0.296c-0.487-0.197-0.905-0.479-1.252-0.844
			s-0.613-0.807-0.8-1.324c-0.187-0.517-0.28-1.098-0.28-1.744s0.094-1.227,0.28-1.744c0.187-0.517,0.453-0.957,0.8-1.32
			s0.765-0.643,1.252-0.84C69.603,61.317,70.15,61.219,70.759,61.219z M70.759,68.283c0.735,0,1.284-0.247,1.644-0.74
			c0.36-0.493,0.54-1.199,0.54-2.116c0-0.917-0.18-1.625-0.54-2.124c-0.359-0.499-0.908-0.748-1.644-0.748
			c-0.747,0-1.302,0.25-1.664,0.748c-0.363,0.499-0.544,1.207-0.544,2.124c0,0.917,0.181,1.623,0.544,2.116
			C69.457,68.036,70.012,68.283,70.759,68.283z"/>
		<path fill="#FFFFFF" d="M78.83,69.635c-0.678,0-1.199-0.19-1.564-0.572s-0.548-0.919-0.548-1.612v-4.752h-0.896
			c-0.097,0-0.179-0.031-0.248-0.092c-0.069-0.062-0.104-0.153-0.104-0.276v-0.696l1.32-0.192l0.376-2.36
			c0.026-0.091,0.072-0.164,0.136-0.22c0.064-0.056,0.149-0.084,0.256-0.084h0.881v2.68h2.264v1.24h-2.264v4.632
			c0,0.293,0.071,0.517,0.216,0.672c0.144,0.155,0.336,0.232,0.576,0.232c0.133,0,0.247-0.017,0.344-0.052
			c0.096-0.034,0.179-0.072,0.248-0.112s0.129-0.077,0.18-0.112s0.1-0.052,0.148-0.052c0.096,0,0.173,0.054,0.231,0.16l0.512,0.84
			c-0.267,0.235-0.581,0.415-0.943,0.54C79.587,69.572,79.214,69.635,78.83,69.635z"/>
		<path fill="#FFFFFF" d="M20.172,81.683c0.923-0.859,2.021-1.288,3.296-1.288c0.47,0,0.887,0.076,1.253,0.228
			c0.365,0.152,0.672,0.367,0.92,0.644s0.437,0.607,0.567,0.988c0.131,0.381,0.196,0.804,0.196,1.268v5.184h-0.769
			c-0.165,0-0.29-0.025-0.376-0.076c-0.085-0.05-0.157-0.153-0.216-0.308l-0.168-0.664c-0.208,0.187-0.413,0.353-0.616,0.5
			c-0.202,0.146-0.411,0.271-0.628,0.372c-0.216,0.101-0.447,0.177-0.695,0.228c-0.248,0.051-0.521,0.076-0.82,0.076
			c-0.331,0-0.639-0.045-0.924-0.136c-0.285-0.091-0.532-0.228-0.74-0.412s-0.372-0.412-0.492-0.684s-0.18-0.592-0.18-0.96
			c0-0.314,0.084-0.621,0.252-0.92s0.445-0.567,0.832-0.804s0.896-0.433,1.528-0.588c0.632-0.155,1.412-0.243,2.34-0.264v-0.544
			c0-0.586-0.126-1.024-0.376-1.312c-0.251-0.288-0.619-0.432-1.104-0.432c-0.33,0-0.607,0.042-0.832,0.124
			c-0.224,0.083-0.418,0.172-0.584,0.268c-0.165,0.096-0.312,0.186-0.439,0.268c-0.128,0.083-0.265,0.124-0.408,0.124
			c-0.117,0-0.218-0.031-0.3-0.092c-0.083-0.062-0.151-0.137-0.204-0.228L20.172,81.683z M24.732,85.139
			c-0.613,0.021-1.131,0.071-1.552,0.148c-0.422,0.077-0.764,0.176-1.024,0.296c-0.262,0.12-0.449,0.263-0.564,0.428
			c-0.114,0.165-0.172,0.347-0.172,0.544c0,0.192,0.031,0.356,0.093,0.492c0.061,0.136,0.146,0.248,0.256,0.336
			c0.109,0.088,0.237,0.152,0.384,0.192s0.308,0.06,0.483,0.06c0.448,0,0.834-0.084,1.156-0.252c0.323-0.168,0.636-0.412,0.94-0.732
			V85.139z"/>
		<path fill="#FFFFFF" d="M35.413,80.547l-3.28,8.16h-1.552l-3.28-8.16h1.416c0.133,0,0.244,0.034,0.332,0.1
			c0.088,0.067,0.146,0.146,0.172,0.236l1.808,4.752c0.075,0.224,0.142,0.445,0.2,0.664c0.059,0.219,0.109,0.44,0.152,0.664
			c0.042-0.224,0.095-0.444,0.156-0.66c0.061-0.216,0.129-0.439,0.203-0.668l1.841-4.752c0.031-0.096,0.09-0.176,0.176-0.24
			c0.085-0.064,0.189-0.096,0.312-0.096H35.413z"/>
		<path fill="#FFFFFF" d="M36.205,81.683c0.923-0.859,2.021-1.288,3.296-1.288c0.47,0,0.887,0.076,1.253,0.228
			c0.365,0.152,0.672,0.367,0.92,0.644s0.437,0.607,0.567,0.988c0.131,0.381,0.196,0.804,0.196,1.268v5.184h-0.769
			c-0.165,0-0.29-0.025-0.376-0.076c-0.085-0.05-0.157-0.153-0.216-0.308l-0.168-0.664c-0.208,0.187-0.413,0.353-0.616,0.5
			c-0.202,0.146-0.411,0.271-0.628,0.372c-0.216,0.101-0.447,0.177-0.695,0.228c-0.248,0.051-0.521,0.076-0.82,0.076
			c-0.331,0-0.639-0.045-0.924-0.136c-0.285-0.091-0.532-0.228-0.74-0.412s-0.372-0.412-0.492-0.684s-0.18-0.592-0.18-0.96
			c0-0.314,0.084-0.621,0.252-0.92s0.445-0.567,0.832-0.804s0.896-0.433,1.528-0.588c0.632-0.155,1.412-0.243,2.34-0.264v-0.544
			c0-0.586-0.126-1.024-0.376-1.312c-0.251-0.288-0.619-0.432-1.104-0.432c-0.33,0-0.607,0.042-0.832,0.124
			c-0.224,0.083-0.418,0.172-0.584,0.268c-0.165,0.096-0.312,0.186-0.439,0.268c-0.128,0.083-0.265,0.124-0.408,0.124
			c-0.117,0-0.218-0.031-0.3-0.092c-0.083-0.062-0.151-0.137-0.204-0.228L36.205,81.683z M40.766,85.139
			c-0.613,0.021-1.131,0.071-1.552,0.148c-0.422,0.077-0.764,0.176-1.024,0.296c-0.262,0.12-0.449,0.263-0.564,0.428
			c-0.114,0.165-0.172,0.347-0.172,0.544c0,0.192,0.031,0.356,0.093,0.492c0.061,0.136,0.146,0.248,0.256,0.336
			c0.109,0.088,0.237,0.152,0.384,0.192s0.308,0.06,0.483,0.06c0.448,0,0.834-0.084,1.156-0.252c0.323-0.168,0.636-0.412,0.94-0.732
			V85.139z"/>
		<path fill="#FFFFFF" d="M46.524,78.083c0,0.155-0.03,0.301-0.092,0.44s-0.146,0.26-0.252,0.364s-0.23,0.187-0.372,0.248
			c-0.142,0.061-0.292,0.092-0.452,0.092c-0.154,0-0.3-0.031-0.436-0.092c-0.137-0.062-0.255-0.144-0.356-0.248
			s-0.183-0.226-0.244-0.364s-0.092-0.285-0.092-0.44c0-0.16,0.03-0.309,0.092-0.448s0.143-0.26,0.244-0.364s0.22-0.187,0.356-0.248
			c0.136-0.061,0.281-0.092,0.436-0.092c0.16,0,0.311,0.031,0.452,0.092c0.142,0.062,0.266,0.144,0.372,0.248
			s0.19,0.226,0.252,0.364S46.524,77.923,46.524,78.083z M46.236,80.547v8.16h-1.72v-8.16H46.236z"/>
		<path fill="#FFFFFF" d="M50.157,76.867v11.84h-1.72v-11.84H50.157z"/>
		<path fill="#FFFFFF" d="M52.084,81.683c0.923-0.859,2.021-1.288,3.296-1.288c0.47,0,0.887,0.076,1.253,0.228
			c0.365,0.152,0.672,0.367,0.92,0.644s0.437,0.607,0.567,0.988c0.131,0.381,0.196,0.804,0.196,1.268v5.184h-0.769
			c-0.165,0-0.29-0.025-0.376-0.076c-0.085-0.05-0.157-0.153-0.216-0.308l-0.168-0.664c-0.208,0.187-0.413,0.353-0.616,0.5
			c-0.202,0.146-0.411,0.271-0.628,0.372c-0.216,0.101-0.447,0.177-0.695,0.228c-0.248,0.051-0.521,0.076-0.82,0.076
			c-0.331,0-0.639-0.045-0.924-0.136c-0.285-0.091-0.532-0.228-0.74-0.412s-0.372-0.412-0.492-0.684s-0.18-0.592-0.18-0.96
			c0-0.314,0.084-0.621,0.252-0.92s0.445-0.567,0.832-0.804s0.896-0.433,1.528-0.588c0.632-0.155,1.412-0.243,2.34-0.264v-0.544
			c0-0.586-0.126-1.024-0.376-1.312c-0.251-0.288-0.619-0.432-1.104-0.432c-0.33,0-0.607,0.042-0.832,0.124
			c-0.224,0.083-0.418,0.172-0.584,0.268c-0.165,0.096-0.312,0.186-0.439,0.268c-0.128,0.083-0.265,0.124-0.408,0.124
			c-0.117,0-0.218-0.031-0.3-0.092c-0.083-0.062-0.151-0.137-0.204-0.228L52.084,81.683z M56.645,85.139
			c-0.613,0.021-1.131,0.071-1.552,0.148c-0.422,0.077-0.764,0.176-1.024,0.296c-0.262,0.12-0.449,0.263-0.564,0.428
			c-0.114,0.165-0.172,0.347-0.172,0.544c0,0.192,0.031,0.356,0.093,0.492c0.061,0.136,0.146,0.248,0.256,0.336
			c0.109,0.088,0.237,0.152,0.384,0.192s0.308,0.06,0.483,0.06c0.448,0,0.834-0.084,1.156-0.252c0.323-0.168,0.636-0.412,0.94-0.732
			V85.139z"/>
		<path fill="#FFFFFF" d="M62.045,81.627c0.336-0.368,0.713-0.661,1.129-0.88c0.415-0.219,0.891-0.328,1.424-0.328
			c0.475,0,0.902,0.092,1.283,0.276c0.382,0.184,0.706,0.45,0.973,0.796s0.472,0.767,0.616,1.26
			c0.144,0.494,0.216,1.049,0.216,1.668c0,0.662-0.082,1.263-0.244,1.804c-0.163,0.542-0.396,1.005-0.7,1.392
			s-0.672,0.685-1.104,0.896c-0.433,0.21-0.915,0.316-1.448,0.316c-0.262,0-0.499-0.025-0.712-0.076
			c-0.214-0.051-0.411-0.124-0.592-0.22c-0.182-0.096-0.349-0.211-0.5-0.344c-0.152-0.133-0.298-0.285-0.437-0.456l-0.072,0.632
			c-0.026,0.123-0.074,0.211-0.144,0.264s-0.165,0.08-0.288,0.08h-1.12v-11.84h1.72V81.627z M62.045,86.659
			c0.24,0.309,0.503,0.526,0.788,0.652s0.597,0.188,0.933,0.188c0.677,0,1.205-0.245,1.584-0.736
			c0.378-0.491,0.567-1.251,0.567-2.28c0-0.938-0.164-1.624-0.491-2.056c-0.328-0.432-0.797-0.648-1.404-0.648
			c-0.422,0-0.788,0.095-1.101,0.284c-0.312,0.189-0.604,0.46-0.876,0.812V86.659z"/>
		<path fill="#FFFFFF" d="M71.101,76.867v11.84h-1.72v-11.84H71.101z"/>
		<path fill="#FFFFFF" d="M74.476,84.763c0.021,0.464,0.094,0.865,0.216,1.204c0.123,0.339,0.287,0.62,0.492,0.844
			s0.451,0.391,0.736,0.5s0.604,0.164,0.956,0.164c0.336,0,0.626-0.039,0.872-0.116c0.245-0.077,0.458-0.163,0.64-0.256
			s0.336-0.179,0.464-0.256s0.245-0.116,0.353-0.116c0.139,0,0.245,0.053,0.319,0.16l0.488,0.632
			c-0.203,0.24-0.432,0.443-0.688,0.608c-0.256,0.166-0.527,0.3-0.815,0.404s-0.584,0.179-0.888,0.224
			c-0.305,0.045-0.601,0.068-0.889,0.068c-0.565,0-1.089-0.095-1.571-0.284c-0.483-0.189-0.901-0.468-1.257-0.836
			c-0.354-0.368-0.632-0.824-0.832-1.368c-0.199-0.544-0.3-1.17-0.3-1.88c0-0.565,0.09-1.093,0.269-1.584s0.435-0.917,0.768-1.28
			s0.738-0.649,1.216-0.86c0.478-0.21,1.018-0.316,1.62-0.316c0.501,0,0.966,0.082,1.393,0.244c0.426,0.163,0.794,0.401,1.104,0.716
			c0.31,0.315,0.551,0.7,0.724,1.156c0.174,0.456,0.261,0.975,0.261,1.556c0,0.267-0.029,0.446-0.088,0.536
			c-0.06,0.091-0.166,0.136-0.32,0.136H74.476z M78.58,83.707c0-0.288-0.042-0.556-0.124-0.804
			c-0.083-0.248-0.204-0.464-0.364-0.648s-0.358-0.328-0.596-0.432s-0.511-0.156-0.82-0.156c-0.624,0-1.115,0.179-1.472,0.536
			c-0.357,0.357-0.584,0.859-0.681,1.504H78.58z"/>
	</g>
</g>
</svg>
