<?xml version="1.0" encoding="utf-8"?>
<!-- Generator: Adobe Illustrator 15.0.0, SVG Export Plug-In . SVG Version: 6.00 Build 0)  -->
<!DOCTYPE svg PUBLIC "-//W3C//DTD SVG 1.1//EN" "http://www.w3.org/Graphics/SVG/1.1/DTD/svg11.dtd">
<svg version="1.1" id="Layer_1" xmlns="http://www.w3.org/2000/svg" xmlns:xlink="http://www.w3.org/1999/xlink" x="0px" y="0px"
	 width="100px" height="100px" viewBox="0 0 100 100" enable-background="new 0 0 100 100" xml:space="preserve">
<title>Artboard</title>
<desc>Created with Sketch.</desc>
<rect id="Rectangle" fill="#9BA7BC" width="100" height="100"/>
<g enable-background="new    ">
	<path fill="#FFFFFF" d="M8.226,72v-7.139h0.83v6.387h3.149V72H8.226z"/>
	<path fill="#FFFFFF" d="M17.913,69.319c0,0.872-0.22,1.554-0.659,2.044c-0.439,0.489-1.046,0.734-1.821,0.734
		c-0.479,0-0.903-0.112-1.274-0.337s-0.657-0.547-0.859-0.967c-0.201-0.42-0.303-0.911-0.303-1.475c0-0.872,0.219-1.552,0.654-2.038
		c0.437-0.487,1.042-0.73,1.816-0.73c0.749,0,1.344,0.249,1.785,0.747C17.692,67.796,17.913,68.47,17.913,69.319z M13.836,69.319
		c0,0.684,0.137,1.204,0.41,1.562s0.676,0.537,1.206,0.537c0.531,0,0.934-0.179,1.209-0.534c0.274-0.357,0.412-0.879,0.412-1.565
		c0-0.681-0.138-1.197-0.412-1.55c-0.275-0.354-0.682-0.53-1.219-0.53c-0.53,0-0.931,0.174-1.201,0.522
		C13.972,68.11,13.836,68.629,13.836,69.319z"/>
	<path fill="#FFFFFF" d="M23.714,66.648v0.513l-0.991,0.117c0.092,0.114,0.173,0.263,0.244,0.446
		c0.072,0.185,0.107,0.392,0.107,0.623c0,0.524-0.179,0.942-0.537,1.255c-0.357,0.312-0.85,0.469-1.475,0.469
		c-0.159,0-0.309-0.013-0.449-0.039c-0.345,0.183-0.518,0.412-0.518,0.688c0,0.146,0.061,0.255,0.181,0.324
		c0.121,0.07,0.327,0.105,0.62,0.105h0.947c0.58,0,1.024,0.122,1.336,0.366c0.311,0.244,0.466,0.599,0.466,1.064
		c0,0.593-0.237,1.044-0.713,1.354c-0.475,0.312-1.168,0.467-2.08,0.467c-0.699,0-1.239-0.13-1.618-0.391
		c-0.38-0.261-0.569-0.628-0.569-1.104c0-0.325,0.104-0.607,0.312-0.845c0.209-0.237,0.502-0.398,0.879-0.483
		c-0.137-0.062-0.251-0.158-0.344-0.288s-0.14-0.281-0.14-0.454c0-0.195,0.053-0.366,0.156-0.513
		c0.104-0.146,0.269-0.288,0.493-0.425c-0.276-0.114-0.502-0.308-0.676-0.581c-0.175-0.273-0.262-0.586-0.262-0.938
		c0-0.586,0.176-1.038,0.527-1.354c0.352-0.318,0.85-0.477,1.494-0.477c0.28,0,0.532,0.032,0.757,0.098H23.714z M19.446,72.898
		c0,0.29,0.122,0.51,0.366,0.659s0.595,0.225,1.05,0.225c0.681,0,1.185-0.102,1.512-0.306c0.327-0.203,0.49-0.479,0.49-0.827
		c0-0.29-0.089-0.491-0.269-0.603c-0.179-0.113-0.516-0.169-1.011-0.169h-0.972c-0.367,0-0.654,0.088-0.859,0.264
		S19.446,72.569,19.446,72.898z M19.886,68.362c0,0.374,0.106,0.657,0.317,0.85c0.212,0.192,0.507,0.288,0.884,0.288
		c0.791,0,1.187-0.384,1.187-1.152c0-0.804-0.4-1.206-1.201-1.206c-0.381,0-0.674,0.103-0.879,0.308S19.886,67.959,19.886,68.362z"
		/>
	<path fill="#FFFFFF" d="M29.432,69.319c0,0.872-0.22,1.554-0.659,2.044c-0.439,0.489-1.046,0.734-1.821,0.734
		c-0.479,0-0.903-0.112-1.274-0.337s-0.657-0.547-0.859-0.967c-0.201-0.42-0.303-0.911-0.303-1.475c0-0.872,0.219-1.552,0.654-2.038
		c0.437-0.487,1.042-0.73,1.816-0.73c0.749,0,1.344,0.249,1.785,0.747C29.211,67.796,29.432,68.47,29.432,69.319z M25.354,69.319
		c0,0.684,0.137,1.204,0.41,1.562s0.676,0.537,1.206,0.537c0.531,0,0.934-0.179,1.209-0.534c0.274-0.357,0.412-0.879,0.412-1.565
		c0-0.681-0.138-1.197-0.412-1.55c-0.275-0.354-0.682-0.53-1.219-0.53c-0.53,0-0.931,0.174-1.201,0.522
		C25.49,68.11,25.354,68.629,25.354,69.319z"/>
	<path fill="#FFFFFF" d="M37.112,72v-3.462c0-0.437-0.099-0.762-0.298-0.977c-0.198-0.215-0.509-0.322-0.933-0.322
		c-0.56,0-0.97,0.151-1.23,0.454c-0.26,0.303-0.391,0.803-0.391,1.499V72H33.45v-5.352h0.659l0.132,0.732h0.039
		c0.166-0.264,0.399-0.468,0.698-0.613c0.3-0.145,0.634-0.217,1.001-0.217c0.645,0,1.13,0.155,1.455,0.467
		c0.326,0.311,0.488,0.808,0.488,1.491V72H37.112z"/>
	<path fill="#FFFFFF" d="M44.207,69.319c0,0.872-0.22,1.554-0.659,2.044c-0.439,0.489-1.046,0.734-1.821,0.734
		c-0.479,0-0.903-0.112-1.274-0.337s-0.657-0.547-0.859-0.967c-0.201-0.42-0.303-0.911-0.303-1.475c0-0.872,0.219-1.552,0.654-2.038
		c0.437-0.487,1.042-0.73,1.816-0.73c0.749,0,1.344,0.249,1.785,0.747C43.986,67.796,44.207,68.47,44.207,69.319z M40.13,69.319
		c0,0.684,0.137,1.204,0.41,1.562s0.676,0.537,1.206,0.537c0.531,0,0.934-0.179,1.209-0.534c0.274-0.357,0.412-0.879,0.412-1.565
		c0-0.681-0.138-1.197-0.412-1.55c-0.275-0.354-0.682-0.53-1.219-0.53c-0.53,0-0.931,0.174-1.201,0.522
		C40.266,68.11,40.13,68.629,40.13,69.319z"/>
	<path fill="#FFFFFF" d="M47.356,71.429c0.144,0,0.282-0.011,0.415-0.032c0.134-0.021,0.239-0.043,0.317-0.065v0.62
		c-0.088,0.042-0.217,0.077-0.388,0.105c-0.171,0.027-0.325,0.041-0.462,0.041c-1.035,0-1.553-0.545-1.553-1.636v-3.184H44.92
		v-0.391l0.767-0.337l0.342-1.143h0.469v1.24h1.553v0.63h-1.553v3.149c0,0.322,0.077,0.569,0.229,0.742
		C46.88,71.343,47.09,71.429,47.356,71.429z"/>
	<path fill="#FFFFFF" d="M55.047,72l-0.161-0.762h-0.039c-0.267,0.335-0.533,0.562-0.798,0.682
		c-0.266,0.118-0.598,0.178-0.994,0.178c-0.531,0-0.946-0.137-1.248-0.41c-0.301-0.273-0.451-0.662-0.451-1.167
		c0-1.081,0.864-1.647,2.593-1.699l0.908-0.029V68.46c0-0.42-0.091-0.729-0.271-0.931c-0.182-0.199-0.471-0.3-0.867-0.3
		c-0.445,0-0.951,0.137-1.514,0.41l-0.249-0.62c0.264-0.144,0.553-0.256,0.866-0.337c0.314-0.081,0.629-0.122,0.945-0.122
		c0.639,0,1.111,0.142,1.418,0.425c0.309,0.283,0.462,0.737,0.462,1.362V72H55.047z M53.216,71.429c0.505,0,0.901-0.139,1.188-0.415
		c0.289-0.276,0.433-0.664,0.433-1.162v-0.483l-0.811,0.034c-0.645,0.022-1.109,0.123-1.394,0.301
		c-0.285,0.177-0.428,0.453-0.428,0.827c0,0.293,0.089,0.516,0.266,0.669C52.648,71.353,52.896,71.429,53.216,71.429z"/>
	<path fill="#FFFFFF" d="M58.489,72l-2.031-5.352h0.869l1.152,3.174c0.261,0.742,0.413,1.224,0.459,1.445h0.039
		c0.036-0.173,0.149-0.529,0.339-1.072c0.191-0.541,0.618-1.724,1.282-3.547h0.869L59.437,72H58.489z"/>
	<path fill="#FFFFFF" d="M65.618,72l-0.161-0.762h-0.039c-0.268,0.335-0.533,0.562-0.799,0.682
		c-0.265,0.118-0.596,0.178-0.993,0.178c-0.53,0-0.946-0.137-1.247-0.41c-0.302-0.273-0.452-0.662-0.452-1.167
		c0-1.081,0.864-1.647,2.593-1.699l0.908-0.029V68.46c0-0.42-0.09-0.729-0.271-0.931c-0.18-0.199-0.469-0.3-0.866-0.3
		c-0.446,0-0.95,0.137-1.514,0.41l-0.249-0.62c0.264-0.144,0.553-0.256,0.867-0.337c0.313-0.081,0.629-0.122,0.944-0.122
		c0.638,0,1.11,0.142,1.419,0.425c0.307,0.283,0.461,0.737,0.461,1.362V72H65.618z M63.787,71.429c0.504,0,0.9-0.139,1.189-0.415
		c0.287-0.276,0.432-0.664,0.432-1.162v-0.483l-0.811,0.034c-0.645,0.022-1.109,0.123-1.395,0.301
		c-0.284,0.177-0.427,0.453-0.427,0.827c0,0.293,0.089,0.516,0.267,0.669C63.22,71.353,63.469,71.429,63.787,71.429z"/>
	<path fill="#FFFFFF" d="M67.82,65.198c0-0.186,0.045-0.321,0.137-0.407c0.092-0.087,0.205-0.13,0.342-0.13
		c0.131,0,0.242,0.044,0.337,0.132s0.142,0.223,0.142,0.405s-0.047,0.318-0.142,0.407c-0.095,0.09-0.206,0.135-0.337,0.135
		c-0.137,0-0.25-0.045-0.342-0.135C67.865,65.517,67.82,65.381,67.82,65.198z M68.699,72h-0.811v-5.352h0.811V72z"/>
	<path fill="#FFFFFF" d="M71.229,72h-0.811v-7.598h0.811V72z"/>
	<path fill="#FFFFFF" d="M76.238,72l-0.161-0.762h-0.039c-0.267,0.335-0.533,0.562-0.798,0.682
		c-0.266,0.118-0.598,0.178-0.994,0.178c-0.531,0-0.946-0.137-1.248-0.41c-0.301-0.273-0.451-0.662-0.451-1.167
		c0-1.081,0.864-1.647,2.593-1.699l0.908-0.029V68.46c0-0.42-0.091-0.729-0.271-0.931c-0.182-0.199-0.471-0.3-0.867-0.3
		c-0.445,0-0.951,0.137-1.514,0.41l-0.249-0.62c0.264-0.144,0.553-0.256,0.866-0.337c0.314-0.081,0.629-0.122,0.945-0.122
		c0.639,0,1.111,0.142,1.418,0.425c0.309,0.283,0.462,0.737,0.462,1.362V72H76.238z M74.407,71.429c0.505,0,0.901-0.139,1.188-0.415
		c0.289-0.276,0.433-0.664,0.433-1.162v-0.483l-0.811,0.034c-0.645,0.022-1.109,0.123-1.394,0.301
		c-0.285,0.177-0.428,0.453-0.428,0.827c0,0.293,0.089,0.516,0.266,0.669C73.84,71.353,74.088,71.429,74.407,71.429z"/>
	<path fill="#FFFFFF" d="M80.999,66.561c0.703,0,1.249,0.24,1.638,0.721c0.39,0.479,0.584,1.159,0.584,2.038
		s-0.196,1.562-0.588,2.048c-0.393,0.487-0.938,0.73-1.634,0.73c-0.349,0-0.667-0.064-0.954-0.193
		c-0.289-0.128-0.53-0.326-0.726-0.593h-0.059L79.09,72h-0.581v-7.598h0.811v1.846c0,0.413-0.013,0.784-0.039,1.113h0.039
		C79.697,66.827,80.257,66.561,80.999,66.561z M80.882,67.239c-0.554,0-0.952,0.159-1.196,0.476
		c-0.244,0.318-0.366,0.853-0.366,1.604s0.126,1.29,0.376,1.614c0.25,0.323,0.652,0.485,1.206,0.485
		c0.498,0,0.869-0.182,1.113-0.544c0.244-0.363,0.366-0.885,0.366-1.565c0-0.696-0.122-1.216-0.366-1.558
		S81.393,67.239,80.882,67.239z"/>
	<path fill="#FFFFFF" d="M85.447,72h-0.811v-7.598h0.811V72z"/>
	<path fill="#FFFFFF" d="M89.427,72.098c-0.791,0-1.415-0.241-1.872-0.723c-0.458-0.481-0.687-1.15-0.687-2.007
		c0-0.862,0.212-1.548,0.638-2.056c0.424-0.508,0.994-0.762,1.711-0.762c0.67,0,1.201,0.221,1.592,0.662
		c0.391,0.44,0.586,1.022,0.586,1.745v0.513h-3.687c0.017,0.628,0.175,1.105,0.476,1.431c0.302,0.325,0.726,0.488,1.272,0.488
		c0.576,0,1.146-0.12,1.709-0.361v0.723c-0.286,0.124-0.558,0.212-0.813,0.267C90.097,72.07,89.788,72.098,89.427,72.098z
		 M89.207,67.229c-0.43,0-0.772,0.14-1.027,0.42c-0.256,0.28-0.406,0.667-0.452,1.162h2.798c0-0.511-0.113-0.902-0.342-1.175
		C89.955,67.365,89.631,67.229,89.207,67.229z"/>
</g>
<g>
	<path fill="#FFFFFF" d="M62.7,25.486c-0.259-0.254-0.563-0.381-0.917-0.381H38.318c-0.354,0-0.659,0.127-0.917,0.381
		s-0.387,0.555-0.387,0.902v15.395c0,1.149,0.228,2.289,0.683,3.418c0.454,1.129,1.018,2.132,1.69,3.007
		c0.672,0.875,1.473,1.728,2.403,2.556c0.93,0.828,1.789,1.517,2.576,2.064c0.788,0.549,1.609,1.066,2.465,1.553
		c0.855,0.488,1.463,0.819,1.823,0.992c0.359,0.174,0.647,0.309,0.865,0.402c0.163,0.079,0.339,0.119,0.529,0.119
		s0.367-0.04,0.53-0.119c0.218-0.094,0.506-0.229,0.865-0.402c0.36-0.173,0.969-0.504,1.824-0.992
		c0.855-0.486,1.676-1.004,2.464-1.553c0.788-0.548,1.646-1.236,2.577-2.064c0.93-0.829,1.73-1.681,2.402-2.556
		c0.673-0.875,1.236-1.877,1.691-3.007s0.682-2.269,0.682-3.418V26.388C63.086,26.041,62.957,25.74,62.7,25.486L62.7,25.486z
		 M59.176,28.954v12.829c0,2.352-1.596,4.758-4.787,7.216c-1.275,0.989-2.723,1.904-4.339,2.746
		c-1.594-0.842-3.021-1.757-4.279-2.746c-3.146-2.458-4.721-4.864-4.721-7.216V28.954h9H59.176z"/>
	<polygon id="Shape_1_" fill="#FFFFFF" points="55.55,34.108 54.441,33 50.05,37.392 45.657,33 44.55,34.108 48.942,38.5 
		44.55,42.892 45.657,44 50.05,39.608 54.441,44 55.55,42.892 51.157,38.5 	"/>
</g>
</svg>
